<mxfile host="65bd71144e">
    <diagram id="oVmoRHmboEGZf3GWoIIo" name="real">
        <mxGraphModel dx="1474" dy="793" grid="1" gridSize="10" guides="1" tooltips="1" connect="1" arrows="1" fold="1" page="1" pageScale="1" pageWidth="850" pageHeight="1100" math="0" shadow="0">
            <root>
                <mxCell id="0"/>
                <mxCell id="1" parent="0"/>
                <mxCell id="3" value="React FE" style="rounded=0;whiteSpace=wrap;html=1;fillColor=#e1d5e7;strokeColor=#9673a6;" parent="1" vertex="1">
                    <mxGeometry x="40" y="80" width="120" height="40" as="geometry"/>
                </mxCell>
                <mxCell id="6" value="mysql" style="shape=cylinder;whiteSpace=wrap;html=1;boundedLbl=1;backgroundOutline=1;rounded=0;fillColor=#f5f5f5;strokeColor=#666666;fontColor=#333333;" parent="1" vertex="1">
                    <mxGeometry x="40" y="170" width="60" height="60" as="geometry"/>
                </mxCell>
                <mxCell id="7" value="PROD host" style="rounded=0;whiteSpace=wrap;html=1;fillColor=#cdeb8b;strokeColor=#36393d;" parent="1" vertex="1">
                    <mxGeometry x="690" y="40" width="130" height="40" as="geometry"/>
                </mxCell>
                <mxCell id="8" style="edgeStyle=orthogonalEdgeStyle;rounded=0;orthogonalLoop=1;jettySize=auto;html=1;entryX=0;entryY=0.5;entryDx=0;entryDy=0;" parent="1" source="9" target="11" edge="1">
                    <mxGeometry relative="1" as="geometry"/>
                </mxCell>
                <mxCell id="9" value="localhost" style="rounded=0;whiteSpace=wrap;html=1;fillColor=#fff2cc;strokeColor=#d6b656;" parent="1" vertex="1">
                    <mxGeometry x="40" y="40" width="120" height="40" as="geometry"/>
                </mxCell>
                <mxCell id="10" style="edgeStyle=orthogonalEdgeStyle;rounded=0;orthogonalLoop=1;jettySize=auto;html=1;entryX=0;entryY=0.5;entryDx=0;entryDy=0;startArrow=none;" parent="1" source="RA-fuOtE1b7xeYD3R6rW-19" target="7" edge="1">
                    <mxGeometry relative="1" as="geometry"/>
                </mxCell>
                <mxCell id="RA-fuOtE1b7xeYD3R6rW-21" value="" style="edgeStyle=orthogonalEdgeStyle;rounded=0;orthogonalLoop=1;jettySize=auto;html=1;" edge="1" parent="1" source="11" target="RA-fuOtE1b7xeYD3R6rW-19">
                    <mxGeometry relative="1" as="geometry"/>
                </mxCell>
                <mxCell id="11" value="code host" style="rounded=0;whiteSpace=wrap;html=1;fillColor=#fff2cc;strokeColor=#d6b656;" parent="1" vertex="1">
                    <mxGeometry x="320" y="40" width="120" height="40" as="geometry"/>
                </mxCell>
                <mxCell id="16" value="app-client" style="rounded=0;whiteSpace=wrap;html=1;fillColor=#f5f5f5;strokeColor=#666666;fontColor=#333333;" parent="1" vertex="1">
                    <mxGeometry x="160" y="80" width="120" height="40" as="geometry"/>
                </mxCell>
                <mxCell id="17" value="app-server" style="rounded=0;whiteSpace=wrap;html=1;fillColor=#f5f5f5;strokeColor=#666666;fontColor=#333333;" parent="1" vertex="1">
                    <mxGeometry x="160" y="120" width="120" height="40" as="geometry"/>
                </mxCell>
                <mxCell id="18" value="Java BE&lt;br&gt;web api" style="rounded=0;whiteSpace=wrap;html=1;fillColor=#d5e8d4;strokeColor=#82b366;" parent="1" vertex="1">
                    <mxGeometry x="40" y="120" width="120" height="40" as="geometry"/>
                </mxCell>
                <mxCell id="19" value="h2" style="shape=cylinder;whiteSpace=wrap;html=1;boundedLbl=1;backgroundOutline=1;rounded=0;fillColor=#f5f5f5;strokeColor=#666666;fontColor=#333333;" parent="1" vertex="1">
                    <mxGeometry x="100" y="170" width="60" height="60" as="geometry"/>
                </mxCell>
                <mxCell id="RA-fuOtE1b7xeYD3R6rW-19" value="TEST host" style="rounded=0;whiteSpace=wrap;html=1;fillColor=#fff2cc;strokeColor=#d6b656;" vertex="1" parent="1">
                    <mxGeometry x="510" y="40" width="120" height="40" as="geometry"/>
                </mxCell>
                <mxCell id="RA-fuOtE1b7xeYD3R6rW-22" value="graphite" style="shape=cylinder;whiteSpace=wrap;html=1;boundedLbl=1;backgroundOutline=1;rounded=0;fillColor=#f5f5f5;strokeColor=#666666;fontColor=#333333;" vertex="1" parent="1">
                    <mxGeometry x="40" y="370" width="60" height="60" as="geometry"/>
                </mxCell>
                <mxCell id="RA-fuOtE1b7xeYD3R6rW-23" value="monitoring host" style="rounded=0;whiteSpace=wrap;html=1;fillColor=#ffff88;strokeColor=#36393d;" vertex="1" parent="1">
                    <mxGeometry x="40" y="320" width="120" height="40" as="geometry"/>
                </mxCell>
                <mxCell id="RA-fuOtE1b7xeYD3R6rW-25" value="logstash" style="shape=cylinder;whiteSpace=wrap;html=1;boundedLbl=1;backgroundOutline=1;rounded=0;fillColor=#f5f5f5;strokeColor=#666666;fontColor=#333333;" vertex="1" parent="1">
                    <mxGeometry x="40" y="440" width="60" height="60" as="geometry"/>
                </mxCell>
                <mxCell id="RA-fuOtE1b7xeYD3R6rW-26" value="tasks host" style="rounded=0;whiteSpace=wrap;html=1;fillColor=#ffff88;strokeColor=#36393d;" vertex="1" parent="1">
                    <mxGeometry x="200" y="320" width="120" height="40" as="geometry"/>
                </mxCell>
                <mxCell id="RA-fuOtE1b7xeYD3R6rW-27" value="Jira" style="rounded=0;whiteSpace=wrap;html=1;fillColor=#dae8fc;strokeColor=#6c8ebf;" vertex="1" parent="1">
                    <mxGeometry x="200" y="360" width="120" height="40" as="geometry"/>
                </mxCell>
                <mxCell id="RA-fuOtE1b7xeYD3R6rW-28" value="documentation host" style="rounded=0;whiteSpace=wrap;html=1;fillColor=#ffff88;strokeColor=#36393d;" vertex="1" parent="1">
                    <mxGeometry x="480" y="320" width="120" height="40" as="geometry"/>
                </mxCell>
                <mxCell id="RA-fuOtE1b7xeYD3R6rW-29" value="Bitbucket" style="rounded=0;whiteSpace=wrap;html=1;fillColor=#dae8fc;strokeColor=#6c8ebf;" vertex="1" parent="1">
                    <mxGeometry x="320" y="80" width="120" height="40" as="geometry"/>
                </mxCell>
                <mxCell id="RA-fuOtE1b7xeYD3R6rW-30" value="Confluence" style="rounded=0;whiteSpace=wrap;html=1;fillColor=#dae8fc;strokeColor=#6c8ebf;" vertex="1" parent="1">
                    <mxGeometry x="480" y="360" width="120" height="40" as="geometry"/>
                </mxCell>
                <mxCell id="RA-fuOtE1b7xeYD3R6rW-34" style="edgeStyle=orthogonalEdgeStyle;rounded=0;orthogonalLoop=1;jettySize=auto;html=1;entryX=0;entryY=0.5;entryDx=0;entryDy=0;" edge="1" parent="1" source="RA-fuOtE1b7xeYD3R6rW-35" target="RA-fuOtE1b7xeYD3R6rW-40">
                    <mxGeometry relative="1" as="geometry"/>
                </mxCell>
                <mxCell id="RA-fuOtE1b7xeYD3R6rW-35" value="nginx" style="rounded=0;whiteSpace=wrap;html=1;fillColor=#cdeb8b;strokeColor=#36393d;" vertex="1" parent="1">
                    <mxGeometry x="990" y="160" width="120" height="40" as="geometry"/>
                </mxCell>
                <mxCell id="RA-fuOtE1b7xeYD3R6rW-36" style="edgeStyle=orthogonalEdgeStyle;rounded=0;orthogonalLoop=1;jettySize=auto;html=1;entryX=0;entryY=0.5;entryDx=0;entryDy=0;" edge="1" parent="1" source="RA-fuOtE1b7xeYD3R6rW-39" target="RA-fuOtE1b7xeYD3R6rW-35">
                    <mxGeometry relative="1" as="geometry"/>
                </mxCell>
                <mxCell id="RA-fuOtE1b7xeYD3R6rW-37" style="edgeStyle=orthogonalEdgeStyle;rounded=0;orthogonalLoop=1;jettySize=auto;html=1;" edge="1" parent="1" source="RA-fuOtE1b7xeYD3R6rW-38" target="RA-fuOtE1b7xeYD3R6rW-39">
                    <mxGeometry relative="1" as="geometry"/>
                </mxCell>
                <mxCell id="RA-fuOtE1b7xeYD3R6rW-38" value="web" style="ellipse;shape=cloud;whiteSpace=wrap;html=1;fillColor=#cce5ff;strokeColor=#36393d;" vertex="1" parent="1">
                    <mxGeometry x="690" y="140" width="120" height="80" as="geometry"/>
                </mxCell>
                <mxCell id="RA-fuOtE1b7xeYD3R6rW-39" value="ufw&lt;br&gt;firewall" style="shape=process;whiteSpace=wrap;html=1;backgroundOutline=1;rotation=90;horizontal=0;fillColor=#ffcccc;strokeColor=#36393d;" vertex="1" parent="1">
                    <mxGeometry x="835" y="155" width="120" height="50" as="geometry"/>
                </mxCell>
                <mxCell id="RA-fuOtE1b7xeYD3R6rW-40" value="443" style="rounded=0;whiteSpace=wrap;html=1;" vertex="1" parent="1">
                    <mxGeometry x="1170" y="160" width="70" height="40" as="geometry"/>
                </mxCell>
            </root>
        </mxGraphModel>
    </diagram>
    <diagram id="2kH1UsU6TexDezQx_7MA" name="test">
        <mxGraphModel dx="1474" dy="793" grid="1" gridSize="10" guides="1" tooltips="1" connect="1" arrows="1" fold="1" page="1" pageScale="1" pageWidth="850" pageHeight="1100" math="0" shadow="0">
            <root>
                <mxCell id="LPkPpCV0EkhbvFAbJh_--0"/>
                <mxCell id="LPkPpCV0EkhbvFAbJh_--1" parent="LPkPpCV0EkhbvFAbJh_--0"/>
            </root>
        </mxGraphModel>
    </diagram>
</mxfile>